# xmcd
# Track frame offsets:
# 150
# 14832
# 28717
# 41924
# 57365
# 72256
# 87404
# 100540
# 112335
# 125557
# 139478
# 151619
# 164621
# 177321
# 191552
# 204532
# 216463
# 229275
# 238801
# 251387
# 263388
# 276257
# 287312
# 298958
# 308618
# 315556
# 329990
# 341946
#
# Disc length: 4722 seconds
# Revision: 0
# Processed by: cddbd v1.5.2PL0 Copyright (c) Steve Scherf et al.
# Submitted via: VisiTrax 2.10.3.257 - For more info visit www.synapsa.com
#
DISCID=bf12701c
DTITLE=Sanders, Felicia - Song From Moulin Rouge, The and  Felicia At The Blu
DTITLE=e Angel
DYEAR=2006
DGENRE=Pop
TTITLE0=Song From Moulin Rouge, The
TTITLE1=I May Not Remember Your Name
TTITLE2=How Did He Look
TTITLE3=Embrasse (Hold Me Close)
TTITLE4=Melancolie
TTITLE5=Ma Curly Headed Babby
TTITLE6=Love Affair
TTITLE7=Jole John
TTITLE8=My Love Belongs To You
TTITLE9=How Long Has This Been Going On
TTITLE10=Blue Star
TTITLE11=My Love's A Gentle Man
TTITLE12=All At Once (Deja)
TTITLE13=Wanting And Loving
TTITLE14=Surrender To Me
TTITLE15=This Is Real
TTITLE16=Come Rain Or Come Shine
TTITLE17=Speaking Of Love
TTITLE18=If I Love Again
TTITLE19=It Might As Well Be Spring
TTITLE20=I Wanna Be Loved
TTITLE21=Baby - Did You Hear
TTITLE22=Something Cool
TTITLE23=My Funny Valentine
TTITLE24=You Make Me Feel So Young
TTITLE25=When The World Was Young
TTITLE26=Old Devil Moon
TTITLE27=Song From Moulin Rouge 2, The
EXTD=
EXTT0=
EXTT1=
EXTT2=
EXTT3=
EXTT4=
EXTT5=
EXTT6=
EXTT7=
EXTT8=
EXTT9=
EXTT10=
EXTT11=
EXTT12=
EXTT13=
EXTT14=
EXTT15=
EXTT16=
EXTT17=
EXTT18=
EXTT19=
EXTT20=
EXTT21=
EXTT22=
EXTT23=
EXTT24=
EXTT25=
EXTT26=
EXTT27=
PLAYORDER=
